<svg width="200" height="45" viewBox="0 0 200 45" fill="none" xmlns="http://www.w3.org/2000/svg">
<path d="M1.65815 6.2493L2.65133 1.00132H3.26514L3.23957 2.31678L2.1654 7.72169H1.52174L1.65815 6.2493ZM1.02728 1.00132L1.81586 6.21238L1.84996 7.72169H1.17221L0 1.00132H1.02728ZM4.34358 6.19392L5.12363 1.00132H6.14666L4.97871 7.72169H4.30095L4.34358 6.19392ZM3.51237 1.00132L4.49703 6.26315L4.62491 7.72169H3.98126L2.93266 2.31216L2.90709 1.00132H3.51237Z" fill="#008AC5"/>
<path d="M10.1218 6.78472V7.72169H7.42782V6.78472H10.1218ZM7.70063 1.00132V7.72169H6.66482V1.00132H7.70063ZM9.75946 3.7984V4.72153H7.42782V3.7984H9.75946ZM10.0962 1.00132V1.94291H7.42782V1.00132H10.0962Z" fill="#008AC5"/>
<path d="M13.385 5.98621C13.385 5.84774 13.3708 5.72466 13.3424 5.61696C13.3168 5.50618 13.2671 5.40618 13.1932 5.31694C13.1193 5.22771 13.0142 5.14001 12.8778 5.05385C12.7442 4.96769 12.5709 4.88 12.3578 4.79076C12.1134 4.68922 11.8846 4.57844 11.6715 4.45843C11.4612 4.33535 11.2751 4.19688 11.1131 4.04303C10.9539 3.8861 10.8289 3.70301 10.738 3.49377C10.647 3.28452 10.6016 3.04143 10.6016 2.76449C10.6016 2.49063 10.6456 2.24139 10.7337 2.01676C10.8246 1.78906 10.9525 1.59366 11.1173 1.43058C11.285 1.26441 11.4839 1.13671 11.7141 1.04748C11.9443 0.955164 12.1986 0.909008 12.4771 0.909008C12.8778 0.909008 13.2202 1.00132 13.5044 1.18595C13.7914 1.37057 14.0102 1.61828 14.1608 1.92906C14.3143 2.23985 14.391 2.58449 14.391 2.96297H13.3595C13.3595 2.74449 13.3282 2.55064 13.2657 2.3814C13.2032 2.21216 13.1066 2.07984 12.9758 1.98445C12.8451 1.88906 12.676 1.84137 12.4686 1.84137C12.2782 1.84137 12.1205 1.88137 11.9954 1.96137C11.8732 2.04138 11.7823 2.15062 11.7226 2.28908C11.6658 2.42755 11.6374 2.58602 11.6374 2.76449C11.6374 2.88758 11.6615 2.99989 11.7098 3.10144C11.7582 3.1999 11.8278 3.29068 11.9187 3.37376C12.0097 3.45684 12.1205 3.53531 12.2512 3.60916C12.3819 3.68301 12.5325 3.75378 12.703 3.82148C12.9929 3.93533 13.2458 4.06149 13.4618 4.19996C13.6777 4.33843 13.8554 4.49382 13.9946 4.66614C14.1367 4.83538 14.2418 5.0277 14.31 5.24309C14.3811 5.45849 14.4166 5.70312 14.4166 5.97698C14.4166 6.25392 14.3725 6.50624 14.2845 6.73394C14.1992 6.95857 14.0742 7.15089 13.9093 7.3109C13.7445 7.47091 13.5456 7.59553 13.3126 7.68477C13.0796 7.77092 12.8181 7.814 12.5283 7.814C12.2611 7.814 12.004 7.77092 11.7567 7.68477C11.5123 7.59861 11.2935 7.46783 11.1003 7.29244C10.9071 7.11397 10.7536 6.89088 10.6399 6.62317C10.5291 6.35546 10.4737 6.0416 10.4737 5.68158H11.5095C11.5095 5.89698 11.5337 6.0816 11.582 6.23546C11.6303 6.38623 11.6999 6.51086 11.7908 6.60932C11.8846 6.70471 11.994 6.77549 12.1191 6.82164C12.2469 6.86472 12.389 6.88626 12.5453 6.88626C12.7386 6.88626 12.8963 6.84934 13.0185 6.77549C13.1435 6.69856 13.2359 6.5924 13.2955 6.45701C13.3552 6.32161 13.385 6.16468 13.385 5.98621Z" fill="#008AC5"/>
<path d="M17.3389 1.00132V7.72169H16.3073V1.00132H17.3389ZM18.9203 1.00132V1.94291H14.7429V1.00132H18.9203Z" fill="#008AC5"/>
<path d="M21.4461 4.49074H20.0011L19.9926 4.0061H21.2415C21.4916 4.0061 21.7033 3.95841 21.8766 3.86302C22.0528 3.76763 22.1864 3.62608 22.2773 3.43838C22.3711 3.25068 22.418 3.01836 22.418 2.74142C22.418 2.46448 22.3725 2.2337 22.2816 2.04907C22.1935 1.86137 22.0585 1.7229 21.8766 1.63366C21.6976 1.54135 21.4717 1.49519 21.1989 1.49519H20.1204V7.72169H19.6345V1.00132H21.1989C21.4632 1.00132 21.7004 1.03517 21.9107 1.10286C22.1239 1.17056 22.3043 1.27672 22.4521 1.42134C22.5999 1.56289 22.7121 1.74598 22.7888 1.97061C22.8684 2.19216 22.9082 2.45525 22.9082 2.75988C22.9082 3.03374 22.8585 3.28298 22.759 3.50761C22.6595 3.72916 22.5203 3.91071 22.3413 4.05226C22.1651 4.1938 21.9548 4.2815 21.7104 4.31535L21.4461 4.49074ZM21.4078 7.72169H19.8349L20.0949 7.22782H21.412C21.6592 7.22782 21.871 7.17243 22.0471 7.06166C22.2233 6.9478 22.3583 6.78625 22.4521 6.57701C22.5487 6.36777 22.597 6.12006 22.597 5.83389C22.597 5.58157 22.5558 5.35387 22.4734 5.15078C22.391 4.94769 22.2631 4.78768 22.0898 4.67075C21.9193 4.55075 21.7033 4.49074 21.4419 4.49074H20.5126L20.5211 4.0061H21.8212L21.915 4.1815C22.1537 4.21227 22.3597 4.30458 22.5331 4.45843C22.7093 4.61229 22.8457 4.80768 22.9423 5.04462C23.0389 5.28156 23.0872 5.54157 23.0872 5.82466C23.0872 6.23699 23.0162 6.58471 22.8741 6.8678C22.732 7.14781 22.5345 7.36013 22.2816 7.50476C22.0315 7.64938 21.7402 7.72169 21.4078 7.72169Z" fill="#008AC5"/>
<path d="M24.0444 1.00132H25.7452C26.1118 1.00132 26.4272 1.07671 26.6915 1.22749C26.9586 1.37826 27.1632 1.60135 27.3053 1.89675C27.4502 2.19216 27.5227 2.55371 27.5227 2.98143C27.5227 3.29837 27.4701 3.58608 27.365 3.84455C27.2627 4.10303 27.122 4.31843 26.943 4.49074C26.764 4.66306 26.5537 4.78153 26.3121 4.84615L26.1501 4.92461H24.3769L24.3684 4.43074H25.8262C26.0961 4.43074 26.3206 4.36304 26.4997 4.22765C26.6787 4.09226 26.8123 3.91379 26.9004 3.69224C26.9913 3.47069 27.0368 3.23375 27.0368 2.98143C27.0368 2.6768 26.987 2.41371 26.8876 2.19216C26.7909 1.97061 26.646 1.79983 26.4528 1.67982C26.2624 1.55674 26.0265 1.49519 25.7452 1.49519H24.5304V7.72169H24.0444V1.00132ZM27.2286 7.72169L25.8944 4.71691L26.4144 4.71229L27.7443 7.66169V7.72169H27.2286Z" fill="#008AC5"/>
<path d="M29.1662 1.00132V7.72169H28.676V1.00132H29.1662Z" fill="#008AC5"/>
<path d="M31.8838 7.72169H30.7201L30.7244 7.22782H31.8838C32.2561 7.22782 32.573 7.1432 32.8344 6.97396C33.0958 6.80472 33.2947 6.55701 33.4312 6.23084C33.5704 5.90467 33.64 5.50772 33.64 5.04V3.67378C33.64 3.31683 33.6002 3.00297 33.5207 2.73219C33.4439 2.45832 33.3303 2.23062 33.1797 2.04907C33.0319 1.86445 32.8514 1.72598 32.6383 1.63366C32.4252 1.54135 32.1851 1.49519 31.9179 1.49519H30.6946V1.00132H31.9179C32.2476 1.00132 32.5474 1.05979 32.8173 1.17672C33.0873 1.29364 33.3189 1.46596 33.5121 1.69367C33.7082 1.92137 33.8588 2.20139 33.964 2.53371C34.0691 2.86604 34.1217 3.24914 34.1217 3.68301V5.04C34.1217 5.47387 34.0691 5.85851 33.964 6.19392C33.8588 6.52624 33.7082 6.80626 33.5121 7.03396C33.3161 7.25859 33.0802 7.42937 32.8046 7.5463C32.5317 7.66323 32.2248 7.72169 31.8838 7.72169ZM30.9461 1.00132V7.72169H30.4601V1.00132H30.9461Z" fill="#008AC5"/>
<path d="M38.9536 4.52305V6.94165C38.8939 7.03088 38.7916 7.14474 38.6467 7.28321C38.5018 7.42168 38.3057 7.5463 38.0585 7.65707C37.8141 7.76477 37.5072 7.81862 37.1377 7.81862C36.828 7.81862 36.5467 7.76016 36.2937 7.64323C36.0408 7.5263 35.822 7.35398 35.6373 7.12627C35.4554 6.89857 35.3148 6.61702 35.2153 6.28161C35.1158 5.94313 35.0661 5.55234 35.0661 5.10924V3.563C35.0661 3.12605 35.1102 2.74296 35.1983 2.41371C35.2892 2.08446 35.4199 1.80906 35.5904 1.58751C35.7638 1.36288 35.974 1.19364 36.2213 1.07979C36.4685 0.965934 36.7513 0.909008 37.0695 0.909008C37.456 0.909008 37.7842 0.987474 38.0542 1.14441C38.3242 1.29826 38.5344 1.52289 38.6851 1.81829C38.8385 2.11369 38.928 2.47217 38.9536 2.89373H38.4634C38.435 2.58295 38.3696 2.31678 38.2673 2.09523C38.165 1.87368 38.0158 1.7029 37.8197 1.58289C37.6237 1.46288 37.3736 1.40288 37.0695 1.40288C36.8166 1.40288 36.595 1.44904 36.4046 1.54135C36.217 1.63366 36.0593 1.77059 35.9314 1.95214C35.8064 2.13369 35.7126 2.35832 35.6501 2.62603C35.5876 2.89373 35.5563 3.20298 35.5563 3.55377V5.10924C35.5563 5.47234 35.5918 5.79235 35.6629 6.06929C35.7368 6.34315 35.8419 6.57394 35.9783 6.76164C36.1147 6.94934 36.2795 7.09089 36.4728 7.18628C36.6688 7.27859 36.8905 7.32475 37.1377 7.32475C37.3992 7.32475 37.6194 7.28936 37.7984 7.21859C37.9775 7.14781 38.121 7.06781 38.229 6.97857C38.3398 6.88934 38.4194 6.81703 38.4677 6.76164V5.01231H37.1036V4.52305H38.9536Z" fill="#008AC5"/>
<path d="M43.3507 7.22782V7.72169H40.4522V7.22782H43.3507ZM40.5843 1.00132V7.72169H40.0984V1.00132H40.5843ZM42.9884 4.01072V4.50459H40.4522V4.01072H42.9884ZM43.3294 1.00132V1.49519H40.4522V1.00132H43.3294Z" fill="#008AC5"/>
<path d="M49.6901 2.96901H50.2119C50.1952 3.15599 50.1395 3.32271 50.0449 3.46916C49.9503 3.6143 49.8174 3.72871 49.6463 3.8124C49.4752 3.89608 49.2672 3.93793 49.0223 3.93793C48.8345 3.93793 48.6654 3.90654 48.5152 3.84378C48.3649 3.77971 48.2362 3.68949 48.1291 3.57311C48.022 3.45543 47.9399 3.31356 47.8828 3.14749C47.8272 2.98143 47.7994 2.79575 47.7994 2.59046V2.35313C47.7994 2.14784 47.8279 1.96217 47.8849 1.7961C47.9434 1.63004 48.0268 1.48817 48.1354 1.37049C48.2439 1.2515 48.374 1.16062 48.5256 1.09785C48.6787 1.03509 48.8505 1.00371 49.0411 1.00371C49.2832 1.00371 49.4877 1.04555 49.6546 1.12924C49.8216 1.21292 49.951 1.32864 50.0428 1.4764C50.136 1.62416 50.1931 1.79349 50.2139 1.9844H49.6922C49.6783 1.86148 49.6477 1.75622 49.6004 1.66861C49.5545 1.58101 49.4863 1.51432 49.3959 1.46855C49.3054 1.42148 49.1872 1.39794 49.0411 1.39794C48.9214 1.39794 48.8171 1.41887 48.7281 1.46071C48.639 1.50255 48.5646 1.56401 48.5048 1.64508C48.4449 1.72615 48.3997 1.82618 48.3691 1.94517C48.3399 2.06285 48.3253 2.19753 48.3253 2.34921V2.59046C48.3253 2.7343 48.3385 2.86505 48.3649 2.98274C48.3928 3.09911 48.4345 3.19914 48.4901 3.28283C48.5472 3.36651 48.6195 3.43124 48.7072 3.477C48.7948 3.52277 48.8999 3.54565 49.0223 3.54565C49.1712 3.54565 49.2915 3.52342 49.3833 3.47896C49.4766 3.43451 49.5468 3.36978 49.5941 3.28479C49.6428 3.19849 49.6748 3.09323 49.6901 2.96901Z" fill="#58585A"/>
<path d="M51.9992 1.42344L51.0914 3.8987H50.5425L51.6861 1.04294H52.0368L51.9992 1.42344ZM52.7588 3.8987L51.8489 1.42344L51.8093 1.04294H52.162L53.3098 3.8987H52.7588ZM52.715 2.83956V3.22987H51.0622V2.83956H52.715Z" fill="#58585A"/>
<path d="M54.9322 2.83367H54.1413V2.44336H54.9322C55.07 2.44336 55.1813 2.42244 55.2661 2.38059C55.351 2.33875 55.4129 2.28122 55.4519 2.20799C55.4922 2.13346 55.5124 2.04847 55.5124 1.95301C55.5124 1.86279 55.4922 1.77845 55.4519 1.7C55.4129 1.62023 55.351 1.55616 55.2661 1.50778C55.1813 1.4594 55.07 1.43521 54.9322 1.43521H54.302V3.8987H53.7782V1.04294H54.9322C55.1674 1.04294 55.367 1.08216 55.5312 1.16062C55.6967 1.23777 55.8227 1.34499 55.9089 1.48228C55.9952 1.61827 56.0383 1.77387 56.0383 1.94909C56.0383 2.13346 55.9952 2.29168 55.9089 2.42374C55.8227 2.55581 55.6967 2.65715 55.5312 2.72776C55.367 2.79837 55.1674 2.83367 54.9322 2.83367Z" fill="#58585A"/>
<path d="M57.1954 1.04294V3.8987H56.6716V1.04294H57.1954Z" fill="#58585A"/>
<path d="M59.1622 1.04294V3.8987H58.6425V1.04294H59.1622ZM60.1159 1.04294V1.43521H57.6972V1.04294H60.1159Z" fill="#58585A"/>
<path d="M61.6278 1.42344L60.72 3.8987H60.1711L61.3147 1.04294H61.6653L61.6278 1.42344ZM62.3874 3.8987L61.4775 1.42344L61.4379 1.04294H61.7906L62.9384 3.8987H62.3874ZM62.3436 2.83956V3.22987H60.6907V2.83956H62.3436Z" fill="#58585A"/>
<path d="M65.31 3.50839V3.8987H63.7845V3.50839H65.31ZM63.9306 1.04294V3.8987H63.4068V1.04294H63.9306Z" fill="#58585A"/>
<path d="M45.2438 1.00371H45.7171V7.72402H45.2438V1.00371Z" fill="#58585A"/>
<path d="M71.2584 7.53469C70.9721 7.53469 70.732 7.46543 70.5381 7.3269C70.3441 7.18653 70.1973 6.9972 70.0976 6.75894C69.9978 6.52067 69.9479 6.25192 69.9479 5.9527C69.9479 5.65348 69.9969 5.38474 70.0948 5.14647C70.1945 4.9082 70.3404 4.72073 70.5325 4.58404C70.7265 4.44552 70.9647 4.37625 71.2473 4.37625C71.5281 4.37625 71.7701 4.44552 71.9732 4.58404C72.1782 4.72073 72.3362 4.9082 72.447 5.14647C72.5578 5.38289 72.6132 5.65163 72.6132 5.9527C72.6132 6.25192 72.5578 6.52159 72.447 6.76171C72.338 6.99997 72.1819 7.18837 71.9788 7.3269C71.7774 7.46543 71.5373 7.53469 71.2584 7.53469ZM69.851 8.78145V4.45937H70.3663V6.6121H70.4328V8.78145H69.851ZM71.1781 7.01106C71.3628 7.01106 71.5152 6.96396 71.6352 6.86976C71.7571 6.77556 71.8476 6.64904 71.9067 6.49019C71.9677 6.3295 71.9982 6.15034 71.9982 5.9527C71.9982 5.75692 71.9677 5.5796 71.9067 5.42075C71.8476 5.26191 71.7562 5.13539 71.6324 5.04119C71.5087 4.94699 71.3508 4.89989 71.1587 4.89989C70.9777 4.89989 70.8281 4.94422 70.7098 5.03288C70.5935 5.12153 70.5067 5.24529 70.4494 5.40413C70.394 5.56298 70.3663 5.74583 70.3663 5.9527C70.3663 6.15957 70.394 6.34243 70.4494 6.50127C70.5048 6.66012 70.5926 6.78479 70.7126 6.8753C70.8327 6.9658 70.9878 7.01106 71.1781 7.01106ZM73.225 7.45158V4.45937H73.7403V5.18526L73.6682 5.09106C73.7052 4.99501 73.7532 4.90728 73.8123 4.82785C73.8714 4.74658 73.9398 4.68009 74.0173 4.62837C74.0931 4.57296 74.1771 4.53048 74.2695 4.50093C74.3637 4.46953 74.4597 4.45106 74.5576 4.44552C74.6555 4.43813 74.7497 4.44275 74.8402 4.45937V5.0024C74.7423 4.97654 74.6333 4.96915 74.5133 4.98023C74.3951 4.99132 74.2861 5.02918 74.1863 5.09383C74.0921 5.15478 74.0173 5.22866 73.9619 5.31547C73.9084 5.40228 73.8696 5.49925 73.8456 5.60638C73.8216 5.71166 73.8095 5.82341 73.8095 5.94162V7.45158H73.225ZM76.6408 7.53469C76.3434 7.53469 76.0821 7.47005 75.8567 7.34075C75.6332 7.20961 75.4587 7.02768 75.3331 6.79495C75.2093 6.56038 75.1475 6.28886 75.1475 5.98041C75.1475 5.65348 75.2084 5.36996 75.3303 5.12984C75.4541 4.88973 75.6259 4.7041 75.8456 4.57296C76.0654 4.44182 76.3213 4.37625 76.6131 4.37625C76.9179 4.37625 77.1774 4.44736 77.3916 4.58959C77.6059 4.72996 77.7656 4.93036 77.8709 5.1908C77.9781 5.45123 78.0205 5.76061 77.9984 6.11894H77.4193V5.90837C77.4156 5.56113 77.3491 5.30439 77.2198 5.13816C77.0924 4.97192 76.8975 4.88881 76.6353 4.88881C76.3453 4.88881 76.1273 4.98023 75.9814 5.16309C75.8355 5.34595 75.7625 5.61008 75.7625 5.95547C75.7625 6.28425 75.8355 6.53914 75.9814 6.72015C76.1273 6.89931 76.3379 6.98889 76.6131 6.98889C76.7941 6.98889 76.9502 6.94826 77.0813 6.86699C77.2143 6.78387 77.3177 6.66566 77.3916 6.51236L77.9596 6.69244C77.8432 6.96026 77.6668 7.16806 77.4304 7.31582C77.194 7.46173 76.9308 7.53469 76.6408 7.53469ZM75.5741 6.11894V5.66733H77.7102V6.11894H75.5741ZM79.7642 7.53192C79.4004 7.53192 79.1039 7.45158 78.8749 7.29088C78.6458 7.13019 78.5055 6.90393 78.4537 6.6121L79.0466 6.52067C79.0836 6.67582 79.1685 6.79865 79.3015 6.88915C79.4364 6.97781 79.6035 7.02214 79.803 7.02214C79.984 7.02214 80.1253 6.9852 80.2269 6.91132C80.3303 6.83743 80.3821 6.73585 80.3821 6.60655C80.3821 6.53083 80.3636 6.46987 80.3266 6.4237C80.2915 6.37567 80.2167 6.33042 80.1022 6.28794C79.9877 6.24546 79.8132 6.19282 79.5786 6.13002C79.3219 6.06352 79.1178 5.99241 78.9663 5.91668C78.8167 5.83911 78.7096 5.74953 78.6449 5.64794C78.5821 5.54451 78.5507 5.41983 78.5507 5.27391C78.5507 5.0929 78.5987 4.93498 78.6948 4.80015C78.7908 4.66531 78.9257 4.56096 79.0993 4.48707C79.2748 4.41319 79.4798 4.37625 79.7143 4.37625C79.9434 4.37625 80.1475 4.41227 80.3266 4.4843C80.5058 4.55634 80.6508 4.65885 80.7616 4.79184C80.8724 4.92298 80.9389 5.0772 80.9611 5.25452L80.3682 5.36257C80.3479 5.2185 80.2805 5.10491 80.166 5.02179C80.0514 4.93868 79.9027 4.89342 79.7199 4.88604C79.5444 4.87865 79.4022 4.9082 79.2932 4.97469C79.1842 5.03934 79.1298 5.12892 79.1298 5.24344C79.1298 5.30993 79.1501 5.36627 79.1907 5.41244C79.2332 5.45862 79.3145 5.50295 79.4345 5.54543C79.5546 5.58791 79.7319 5.6387 79.9665 5.69781C80.2177 5.76246 80.4171 5.83449 80.5649 5.91391C80.7127 5.99149 80.818 6.08477 80.8808 6.19374C80.9454 6.30087 80.9777 6.43109 80.9777 6.58439C80.9777 6.87992 80.8697 7.11172 80.6536 7.2798C80.4393 7.44788 80.1429 7.53192 79.7642 7.53192ZM82.9179 7.53469C82.6205 7.53469 82.3591 7.47005 82.1338 7.34075C81.9103 7.20961 81.7357 7.02768 81.6101 6.79495C81.4864 6.56038 81.4245 6.28886 81.4245 5.98041C81.4245 5.65348 81.4855 5.36996 81.6074 5.12984C81.7311 4.88973 81.9029 4.7041 82.1227 4.57296C82.3425 4.44182 82.5983 4.37625 82.8901 4.37625C83.1949 4.37625 83.4544 4.44736 83.6687 4.58959C83.8829 4.72996 84.0427 4.93036 84.148 5.1908C84.2551 5.45123 84.2976 5.76061 84.2754 6.11894H83.6964V5.90837C83.6927 5.56113 83.6262 5.30439 83.4969 5.13816C83.3695 4.97192 83.1746 4.88881 82.9123 4.88881C82.6223 4.88881 82.4044 4.98023 82.2585 5.16309C82.1125 5.34595 82.0396 5.61008 82.0396 5.95547C82.0396 6.28425 82.1125 6.53914 82.2585 6.72015C82.4044 6.89931 82.6149 6.98889 82.8901 6.98889C83.0712 6.98889 83.2272 6.94826 83.3584 6.86699C83.4914 6.78387 83.5948 6.66566 83.6687 6.51236L84.2366 6.69244C84.1203 6.96026 83.9439 7.16806 83.7075 7.31582C83.471 7.46173 83.2078 7.53469 82.9179 7.53469ZM81.8512 6.11894V5.66733H83.9873V6.11894H81.8512ZM86.9159 7.45158V5.98041C86.9159 5.86404 86.9058 5.74491 86.8855 5.62301C86.867 5.49925 86.8301 5.38474 86.7747 5.27946C86.7211 5.17417 86.6444 5.08921 86.5447 5.02456C86.4468 4.95992 86.3184 4.92759 86.1596 4.92759C86.0562 4.92759 85.9583 4.94514 85.8659 4.98023C85.7736 5.01348 85.6923 5.06797 85.6221 5.1437C85.5538 5.21943 85.4993 5.31917 85.4586 5.44292C85.4198 5.56667 85.4005 5.7172 85.4005 5.89452L85.0403 5.75876C85.0403 5.48725 85.0911 5.24806 85.1927 5.04119C85.2942 4.83247 85.4402 4.66993 85.6304 4.55357C85.8207 4.4372 86.0506 4.37902 86.3203 4.37902C86.5271 4.37902 86.7008 4.41227 86.8411 4.47876C86.9815 4.54526 87.0951 4.63299 87.1819 4.74197C87.2706 4.84909 87.338 4.96638 87.3842 5.09383C87.4304 5.22127 87.4617 5.34595 87.4784 5.46785C87.495 5.58976 87.5033 5.69689 87.5033 5.78924V7.45158H86.9159ZM84.8131 7.45158V4.45937H85.3312V5.32378H85.4005V7.45158H84.8131ZM89.9372 7.45158C89.7488 7.48852 89.5641 7.50422 89.383 7.49868C89.202 7.49313 89.0404 7.45804 88.8982 7.39339C88.756 7.32875 88.6488 7.22716 88.5768 7.08863C88.5122 6.96488 88.4771 6.83928 88.4715 6.71184C88.4678 6.58254 88.466 6.43663 88.466 6.27409V3.6282H89.0478V6.24638C89.0478 6.36644 89.0487 6.4708 89.0506 6.55946C89.0543 6.64811 89.0737 6.72292 89.1088 6.78387C89.1753 6.89839 89.2805 6.96396 89.4246 6.98058C89.5705 6.99536 89.7414 6.98889 89.9372 6.96119V7.45158ZM87.8925 4.92482V4.45937H89.9372V4.92482H87.8925ZM91.7123 7.53192C91.3484 7.53192 91.052 7.45158 90.8229 7.29088C90.5939 7.13019 90.4535 6.90393 90.4018 6.6121L90.9947 6.52067C91.0316 6.67582 91.1166 6.79865 91.2496 6.88915C91.3844 6.97781 91.5516 7.02214 91.7511 7.02214C91.9321 7.02214 92.0734 6.9852 92.175 6.91132C92.2784 6.83743 92.3301 6.73585 92.3301 6.60655C92.3301 6.53083 92.3116 6.46987 92.2747 6.4237C92.2396 6.37567 92.1648 6.33042 92.0503 6.28794C91.9358 6.24546 91.7612 6.19282 91.5266 6.13002C91.2699 6.06352 91.0658 5.99241 90.9143 5.91668C90.7647 5.83911 90.6576 5.74953 90.593 5.64794C90.5302 5.54451 90.4988 5.41983 90.4988 5.27391C90.4988 5.0929 90.5468 4.93498 90.6428 4.80015C90.7389 4.66531 90.8737 4.56096 91.0473 4.48707C91.2228 4.41319 91.4278 4.37625 91.6624 4.37625C91.8914 4.37625 92.0955 4.41227 92.2747 4.4843C92.4539 4.55634 92.5988 4.65885 92.7097 4.79184C92.8205 4.92298 92.887 5.0772 92.9092 5.25452L92.3163 5.36257C92.2959 5.2185 92.2285 5.10491 92.114 5.02179C91.9995 4.93868 91.8508 4.89342 91.6679 4.88604C91.4925 4.87865 91.3502 4.9082 91.2413 4.97469C91.1323 5.03934 91.0778 5.12892 91.0778 5.24344C91.0778 5.30993 91.0981 5.36627 91.1388 5.41244C91.1812 5.45862 91.2625 5.50295 91.3826 5.54543C91.5026 5.58791 91.6799 5.6387 91.9145 5.69781C92.1657 5.76246 92.3652 5.83449 92.513 5.91391C92.6607 5.99149 92.766 6.08477 92.8288 6.19374C92.8935 6.30087 92.9258 6.43109 92.9258 6.58439C92.9258 6.87992 92.8177 7.11172 92.6016 7.2798C92.3874 7.44788 92.0909 7.53192 91.7123 7.53192Z" fill="#8B8B8B"/>
<path fill-rule="evenodd" clip-rule="evenodd" d="M16.1616 12.2221C7.2358 12.2221 0 19.4579 0 28.3837C0 37.3096 7.2358 44.5454 16.1616 44.5454C25.0874 44.5454 32.3232 37.3096 32.3232 28.3837C32.3232 19.4579 25.0874 12.2221 16.1616 12.2221ZM29.5021 28.3838C29.5021 28.6498 29.4943 28.9141 29.4789 29.1763L24.3321 21.3673L19.0698 30.6918L15.7462 26.0757L10.5762 33.5076L8.22199 30.5533L4.53556 34.9309C3.44401 32.9968 2.82116 30.763 2.82116 28.3838C2.82116 21.016 8.79388 15.0433 16.1616 15.0433C23.5294 15.0433 29.5021 21.016 29.5021 28.3838Z" fill="#FB723D"/>
<path d="M42.4958 28.3366C42.4958 23.7819 45.2476 20.7454 49.3911 20.7454C52.7756 20.7454 54.4203 22.6116 55.1794 24.0666H59.323C58.6271 20.3342 54.6417 16.8233 49.3911 16.8233C42.9702 16.8233 38.3839 21.4096 38.3839 28.305C38.3839 35.3268 42.9702 39.9132 49.3911 39.9132C54.705 39.9132 58.5638 36.4655 59.323 32.6383H55.2427C54.104 34.7575 52.1746 35.9594 49.3911 35.9594C45.2476 35.9594 42.4958 32.923 42.4958 28.3366Z" fill="white"/>
<path d="M60.873 28.305C60.873 35.3268 65.4593 39.9132 71.8802 39.9132C78.396 39.9132 82.9824 35.3268 82.9824 28.305C82.9824 21.4096 78.396 16.8233 71.8802 16.8233C65.4593 16.8233 60.873 21.4096 60.873 28.305ZM64.9849 28.3366C64.9849 23.7819 67.7683 20.7454 71.8802 20.7454C76.1187 20.7454 78.8705 23.7819 78.8705 28.3366C78.8705 32.923 76.1187 35.9594 71.8802 35.9594C67.7683 35.9594 64.9849 32.923 64.9849 28.3366Z" fill="white"/>
<path d="M85.053 39.4388H89.07V24.8573L98.2427 39.4388H102.26V17.2977H98.2427V31.8792L89.07 17.2977H85.053V39.4388Z" fill="white"/>
<path d="M124.671 39.9132L127.455 37.1614L125.114 34.7891C126.158 32.9862 126.727 30.8038 126.727 28.305C126.727 21.4096 122.141 16.8233 115.625 16.8233C109.204 16.8233 104.618 21.4096 104.618 28.305C104.618 35.3268 109.204 39.9132 115.625 39.9132C118.314 39.9132 120.654 39.1225 122.52 37.7307L124.671 39.9132ZM108.73 28.3366C108.73 23.7819 111.482 20.7454 115.625 20.7454C119.832 20.7454 122.615 23.7819 122.615 28.3366C122.615 29.5702 122.426 30.7089 122.046 31.6894L119.136 28.7478L116.321 31.4996L119.611 34.8208C118.503 35.5483 117.175 35.9594 115.625 35.9594C111.482 35.9594 108.73 32.923 108.73 28.3366Z" fill="white"/>
<path d="M129.452 31.1833C129.452 35.6748 132.426 39.9132 138.467 39.9132C144.54 39.9132 147.513 35.6748 147.513 31.1833V17.2977H143.465V30.9935C143.465 33.9035 141.788 35.9594 138.467 35.9594C135.177 35.9594 133.469 33.8402 133.469 30.9935V17.2977H129.452V31.1833Z" fill="white"/>
<path d="M150.99 39.4388H165.698V35.485H155.007V29.8549H164.749V25.9011H155.007V21.2199H165.698V17.2977H150.99V39.4388Z" fill="white"/>
<path d="M180.653 32.7332C180.653 34.9157 178.723 35.9594 176.256 35.9594C173.821 35.9594 171.638 35.0738 171.891 32.2904H167.539C167.539 37.2246 171.069 39.9132 176.066 39.9132C181.159 39.9132 184.765 37.3828 184.765 33.0179C184.765 24.1298 172.207 27.8938 172.207 23.2758C172.207 22.0422 173.251 20.7454 175.845 20.7454C179.04 20.7454 179.894 22.4851 179.799 23.8768H183.658C183.911 21.0617 182.203 16.8233 175.908 16.8233C171.607 16.8233 168.064 18.7211 168.064 23.3074C168.064 31.6578 180.653 28.0203 180.653 32.7332Z" fill="white"/>
<path d="M190.448 39.4388H194.465V21.2199H200V17.2977H184.944V21.2199H190.448V39.4388Z" fill="white"/>
<path d="M116.357 31.4662L119.168 28.8034C119.177 28.7946 119.191 28.7949 119.2 28.804L127.403 37.1562C127.412 37.1654 127.412 37.1801 127.403 37.1892L124.741 39.8515C124.732 39.8606 124.717 39.8606 124.708 39.8515L116.356 31.4999C116.347 31.4905 116.347 31.4753 116.357 31.4662Z" fill="#FB723D"/>
</svg>
